<mxfile host="app.diagrams.net" modified="2024-06-19T05:38:06.952Z" agent="Mozilla/5.0 (Windows NT 10.0; Win64; x64; rv:127.0) Gecko/20100101 Firefox/127.0" etag="w6x_ZgZEegUr6MrXfG3X" version="24.5.5" type="github">
  <diagram id="C5RBs43oDa-KdzZeNtuy" name="Page-1">
    <mxGraphModel dx="1687" dy="932" grid="1" gridSize="10" guides="1" tooltips="1" connect="1" arrows="1" fold="1" page="1" pageScale="1" pageWidth="827" pageHeight="1169" math="0" shadow="0">
      <root>
        <mxCell id="WIyWlLk6GJQsqaUBKTNV-0" />
        <mxCell id="WIyWlLk6GJQsqaUBKTNV-1" parent="WIyWlLk6GJQsqaUBKTNV-0" />
        <mxCell id="qUzS2Nhz008eHLQB9md0-3" value="" style="edgeStyle=orthogonalEdgeStyle;rounded=0;orthogonalLoop=1;jettySize=auto;html=1;" edge="1" parent="WIyWlLk6GJQsqaUBKTNV-1" source="WIyWlLk6GJQsqaUBKTNV-3" target="qUzS2Nhz008eHLQB9md0-2">
          <mxGeometry relative="1" as="geometry" />
        </mxCell>
        <mxCell id="qUzS2Nhz008eHLQB9md0-5" value="" style="edgeStyle=orthogonalEdgeStyle;rounded=0;orthogonalLoop=1;jettySize=auto;html=1;" edge="1" parent="WIyWlLk6GJQsqaUBKTNV-1" source="WIyWlLk6GJQsqaUBKTNV-3" target="qUzS2Nhz008eHLQB9md0-4">
          <mxGeometry relative="1" as="geometry" />
        </mxCell>
        <mxCell id="qUzS2Nhz008eHLQB9md0-13" value="" style="edgeStyle=orthogonalEdgeStyle;rounded=0;orthogonalLoop=1;jettySize=auto;html=1;" edge="1" parent="WIyWlLk6GJQsqaUBKTNV-1" source="WIyWlLk6GJQsqaUBKTNV-3" target="qUzS2Nhz008eHLQB9md0-12">
          <mxGeometry relative="1" as="geometry" />
        </mxCell>
        <mxCell id="WIyWlLk6GJQsqaUBKTNV-3" value="&lt;div&gt;Player Joins&lt;/div&gt;" style="rounded=1;whiteSpace=wrap;html=1;fontSize=12;glass=0;strokeWidth=1;shadow=0;" parent="WIyWlLk6GJQsqaUBKTNV-1" vertex="1">
          <mxGeometry x="160" y="80" width="120" height="40" as="geometry" />
        </mxCell>
        <mxCell id="qUzS2Nhz008eHLQB9md0-2" value="Settings" style="rhombus;whiteSpace=wrap;html=1;rounded=1;glass=0;strokeWidth=1;shadow=0;" vertex="1" parent="WIyWlLk6GJQsqaUBKTNV-1">
          <mxGeometry x="320" y="60" width="80" height="80" as="geometry" />
        </mxCell>
        <mxCell id="qUzS2Nhz008eHLQB9md0-4" value="Credits" style="rhombus;whiteSpace=wrap;html=1;rounded=1;glass=0;strokeWidth=1;shadow=0;" vertex="1" parent="WIyWlLk6GJQsqaUBKTNV-1">
          <mxGeometry x="40" y="60" width="80" height="80" as="geometry" />
        </mxCell>
        <mxCell id="qUzS2Nhz008eHLQB9md0-14" value="" style="edgeStyle=orthogonalEdgeStyle;rounded=0;orthogonalLoop=1;jettySize=auto;html=1;" edge="1" parent="WIyWlLk6GJQsqaUBKTNV-1" source="qUzS2Nhz008eHLQB9md0-12" target="WIyWlLk6GJQsqaUBKTNV-3">
          <mxGeometry relative="1" as="geometry" />
        </mxCell>
        <mxCell id="qUzS2Nhz008eHLQB9md0-16" value="" style="edgeStyle=orthogonalEdgeStyle;rounded=0;orthogonalLoop=1;jettySize=auto;html=1;" edge="1" parent="WIyWlLk6GJQsqaUBKTNV-1" source="qUzS2Nhz008eHLQB9md0-12" target="qUzS2Nhz008eHLQB9md0-15">
          <mxGeometry relative="1" as="geometry" />
        </mxCell>
        <mxCell id="qUzS2Nhz008eHLQB9md0-20" value="" style="edgeStyle=orthogonalEdgeStyle;rounded=0;orthogonalLoop=1;jettySize=auto;html=1;" edge="1" parent="WIyWlLk6GJQsqaUBKTNV-1" source="qUzS2Nhz008eHLQB9md0-12" target="qUzS2Nhz008eHLQB9md0-19">
          <mxGeometry relative="1" as="geometry" />
        </mxCell>
        <mxCell id="qUzS2Nhz008eHLQB9md0-22" value="" style="edgeStyle=orthogonalEdgeStyle;rounded=0;orthogonalLoop=1;jettySize=auto;html=1;" edge="1" parent="WIyWlLk6GJQsqaUBKTNV-1" source="qUzS2Nhz008eHLQB9md0-12" target="qUzS2Nhz008eHLQB9md0-21">
          <mxGeometry relative="1" as="geometry" />
        </mxCell>
        <mxCell id="qUzS2Nhz008eHLQB9md0-12" value="&lt;div&gt;Play&lt;/div&gt;" style="whiteSpace=wrap;html=1;rounded=1;glass=0;strokeWidth=1;shadow=0;" vertex="1" parent="WIyWlLk6GJQsqaUBKTNV-1">
          <mxGeometry x="160" y="190" width="120" height="60" as="geometry" />
        </mxCell>
        <mxCell id="qUzS2Nhz008eHLQB9md0-15" value="&lt;div&gt;Back&lt;/div&gt;" style="rhombus;whiteSpace=wrap;html=1;rounded=1;glass=0;strokeWidth=1;shadow=0;" vertex="1" parent="WIyWlLk6GJQsqaUBKTNV-1">
          <mxGeometry x="40" y="180" width="80" height="80" as="geometry" />
        </mxCell>
        <mxCell id="qUzS2Nhz008eHLQB9md0-26" value="" style="edgeStyle=orthogonalEdgeStyle;rounded=0;orthogonalLoop=1;jettySize=auto;html=1;" edge="1" parent="WIyWlLk6GJQsqaUBKTNV-1" source="qUzS2Nhz008eHLQB9md0-19" target="qUzS2Nhz008eHLQB9md0-25">
          <mxGeometry relative="1" as="geometry" />
        </mxCell>
        <mxCell id="qUzS2Nhz008eHLQB9md0-19" value="&lt;div&gt;Create&lt;/div&gt;" style="rhombus;whiteSpace=wrap;html=1;rounded=1;glass=0;strokeWidth=1;shadow=0;" vertex="1" parent="WIyWlLk6GJQsqaUBKTNV-1">
          <mxGeometry x="180" y="320" width="80" height="80" as="geometry" />
        </mxCell>
        <mxCell id="qUzS2Nhz008eHLQB9md0-54" value="" style="edgeStyle=orthogonalEdgeStyle;rounded=0;orthogonalLoop=1;jettySize=auto;html=1;" edge="1" parent="WIyWlLk6GJQsqaUBKTNV-1" source="qUzS2Nhz008eHLQB9md0-21" target="qUzS2Nhz008eHLQB9md0-53">
          <mxGeometry relative="1" as="geometry" />
        </mxCell>
        <mxCell id="qUzS2Nhz008eHLQB9md0-57" value="" style="edgeStyle=orthogonalEdgeStyle;rounded=0;orthogonalLoop=1;jettySize=auto;html=1;" edge="1" parent="WIyWlLk6GJQsqaUBKTNV-1" source="qUzS2Nhz008eHLQB9md0-21" target="qUzS2Nhz008eHLQB9md0-56">
          <mxGeometry relative="1" as="geometry" />
        </mxCell>
        <mxCell id="qUzS2Nhz008eHLQB9md0-21" value="&lt;div&gt;Join&lt;/div&gt;" style="rhombus;whiteSpace=wrap;html=1;rounded=1;glass=0;strokeWidth=1;shadow=0;" vertex="1" parent="WIyWlLk6GJQsqaUBKTNV-1">
          <mxGeometry x="320" y="180" width="80" height="80" as="geometry" />
        </mxCell>
        <mxCell id="qUzS2Nhz008eHLQB9md0-28" value="" style="edgeStyle=orthogonalEdgeStyle;rounded=0;orthogonalLoop=1;jettySize=auto;html=1;" edge="1" parent="WIyWlLk6GJQsqaUBKTNV-1" source="qUzS2Nhz008eHLQB9md0-25" target="qUzS2Nhz008eHLQB9md0-27">
          <mxGeometry relative="1" as="geometry" />
        </mxCell>
        <mxCell id="qUzS2Nhz008eHLQB9md0-31" value="" style="edgeStyle=orthogonalEdgeStyle;rounded=0;orthogonalLoop=1;jettySize=auto;html=1;" edge="1" parent="WIyWlLk6GJQsqaUBKTNV-1" source="qUzS2Nhz008eHLQB9md0-25" target="qUzS2Nhz008eHLQB9md0-30">
          <mxGeometry relative="1" as="geometry" />
        </mxCell>
        <mxCell id="qUzS2Nhz008eHLQB9md0-25" value="Name Set" style="rhombus;whiteSpace=wrap;html=1;rounded=1;glass=0;strokeWidth=1;shadow=0;" vertex="1" parent="WIyWlLk6GJQsqaUBKTNV-1">
          <mxGeometry x="180" y="450" width="80" height="80" as="geometry" />
        </mxCell>
        <mxCell id="qUzS2Nhz008eHLQB9md0-27" value="Require Server Name" style="whiteSpace=wrap;html=1;rounded=1;glass=0;strokeWidth=1;shadow=0;" vertex="1" parent="WIyWlLk6GJQsqaUBKTNV-1">
          <mxGeometry x="320" y="460" width="120" height="60" as="geometry" />
        </mxCell>
        <mxCell id="qUzS2Nhz008eHLQB9md0-29" value="No" style="text;html=1;align=center;verticalAlign=middle;resizable=0;points=[];autosize=1;strokeColor=none;fillColor=none;" vertex="1" parent="WIyWlLk6GJQsqaUBKTNV-1">
          <mxGeometry x="270" y="460" width="40" height="30" as="geometry" />
        </mxCell>
        <mxCell id="qUzS2Nhz008eHLQB9md0-34" value="" style="edgeStyle=orthogonalEdgeStyle;rounded=0;orthogonalLoop=1;jettySize=auto;html=1;" edge="1" parent="WIyWlLk6GJQsqaUBKTNV-1" source="qUzS2Nhz008eHLQB9md0-30" target="qUzS2Nhz008eHLQB9md0-33">
          <mxGeometry relative="1" as="geometry" />
        </mxCell>
        <mxCell id="qUzS2Nhz008eHLQB9md0-42" value="" style="edgeStyle=orthogonalEdgeStyle;rounded=0;orthogonalLoop=1;jettySize=auto;html=1;" edge="1" parent="WIyWlLk6GJQsqaUBKTNV-1" source="qUzS2Nhz008eHLQB9md0-30" target="qUzS2Nhz008eHLQB9md0-41">
          <mxGeometry relative="1" as="geometry" />
        </mxCell>
        <mxCell id="qUzS2Nhz008eHLQB9md0-46" value="" style="edgeStyle=orthogonalEdgeStyle;rounded=0;orthogonalLoop=1;jettySize=auto;html=1;" edge="1" parent="WIyWlLk6GJQsqaUBKTNV-1" source="qUzS2Nhz008eHLQB9md0-30" target="qUzS2Nhz008eHLQB9md0-45">
          <mxGeometry relative="1" as="geometry" />
        </mxCell>
        <mxCell id="qUzS2Nhz008eHLQB9md0-30" value="&lt;div&gt;Player&lt;/div&gt;&lt;div&gt;Count&lt;/div&gt;" style="rhombus;whiteSpace=wrap;html=1;rounded=1;glass=0;strokeWidth=1;shadow=0;" vertex="1" parent="WIyWlLk6GJQsqaUBKTNV-1">
          <mxGeometry x="180" y="570" width="80" height="80" as="geometry" />
        </mxCell>
        <mxCell id="qUzS2Nhz008eHLQB9md0-32" value="&lt;div&gt;Yes&lt;/div&gt;" style="text;html=1;align=center;verticalAlign=middle;resizable=0;points=[];autosize=1;strokeColor=none;fillColor=none;" vertex="1" parent="WIyWlLk6GJQsqaUBKTNV-1">
          <mxGeometry x="220" y="530" width="40" height="30" as="geometry" />
        </mxCell>
        <mxCell id="qUzS2Nhz008eHLQB9md0-37" value="" style="edgeStyle=orthogonalEdgeStyle;rounded=0;orthogonalLoop=1;jettySize=auto;html=1;" edge="1" parent="WIyWlLk6GJQsqaUBKTNV-1" source="qUzS2Nhz008eHLQB9md0-33" target="qUzS2Nhz008eHLQB9md0-36">
          <mxGeometry relative="1" as="geometry" />
        </mxCell>
        <mxCell id="qUzS2Nhz008eHLQB9md0-39" value="" style="edgeStyle=orthogonalEdgeStyle;rounded=0;orthogonalLoop=1;jettySize=auto;html=1;" edge="1" parent="WIyWlLk6GJQsqaUBKTNV-1" source="qUzS2Nhz008eHLQB9md0-33" target="qUzS2Nhz008eHLQB9md0-38">
          <mxGeometry relative="1" as="geometry" />
        </mxCell>
        <mxCell id="qUzS2Nhz008eHLQB9md0-33" value="Private?" style="rhombus;whiteSpace=wrap;html=1;rounded=1;glass=0;strokeWidth=1;shadow=0;" vertex="1" parent="WIyWlLk6GJQsqaUBKTNV-1">
          <mxGeometry x="180" y="690" width="80" height="80" as="geometry" />
        </mxCell>
        <mxCell id="qUzS2Nhz008eHLQB9md0-35" value="Yes" style="text;html=1;align=center;verticalAlign=middle;resizable=0;points=[];autosize=1;strokeColor=none;fillColor=none;" vertex="1" parent="WIyWlLk6GJQsqaUBKTNV-1">
          <mxGeometry x="260" y="700" width="40" height="30" as="geometry" />
        </mxCell>
        <mxCell id="qUzS2Nhz008eHLQB9md0-49" style="edgeStyle=orthogonalEdgeStyle;rounded=0;orthogonalLoop=1;jettySize=auto;html=1;exitX=0.5;exitY=1;exitDx=0;exitDy=0;" edge="1" parent="WIyWlLk6GJQsqaUBKTNV-1" source="qUzS2Nhz008eHLQB9md0-36" target="qUzS2Nhz008eHLQB9md0-47">
          <mxGeometry relative="1" as="geometry" />
        </mxCell>
        <mxCell id="qUzS2Nhz008eHLQB9md0-36" value="Don&#39;t Put on Global board" style="whiteSpace=wrap;html=1;rounded=1;glass=0;strokeWidth=1;shadow=0;" vertex="1" parent="WIyWlLk6GJQsqaUBKTNV-1">
          <mxGeometry x="320" y="700" width="120" height="60" as="geometry" />
        </mxCell>
        <mxCell id="qUzS2Nhz008eHLQB9md0-48" value="" style="edgeStyle=orthogonalEdgeStyle;rounded=0;orthogonalLoop=1;jettySize=auto;html=1;" edge="1" parent="WIyWlLk6GJQsqaUBKTNV-1" source="qUzS2Nhz008eHLQB9md0-38" target="qUzS2Nhz008eHLQB9md0-47">
          <mxGeometry relative="1" as="geometry" />
        </mxCell>
        <mxCell id="qUzS2Nhz008eHLQB9md0-38" value="Put on Global Board" style="whiteSpace=wrap;html=1;rounded=1;glass=0;strokeWidth=1;shadow=0;" vertex="1" parent="WIyWlLk6GJQsqaUBKTNV-1">
          <mxGeometry x="160" y="810" width="120" height="60" as="geometry" />
        </mxCell>
        <mxCell id="qUzS2Nhz008eHLQB9md0-40" value="No" style="text;html=1;align=center;verticalAlign=middle;resizable=0;points=[];autosize=1;strokeColor=none;fillColor=none;" vertex="1" parent="WIyWlLk6GJQsqaUBKTNV-1">
          <mxGeometry x="220" y="770" width="40" height="30" as="geometry" />
        </mxCell>
        <mxCell id="qUzS2Nhz008eHLQB9md0-41" value="Default Is 1" style="shape=trapezoid;perimeter=trapezoidPerimeter;whiteSpace=wrap;html=1;fixedSize=1;rounded=1;glass=0;strokeWidth=1;shadow=0;" vertex="1" parent="WIyWlLk6GJQsqaUBKTNV-1">
          <mxGeometry x="50" y="580" width="100" height="60" as="geometry" />
        </mxCell>
        <mxCell id="qUzS2Nhz008eHLQB9md0-45" value="Max is 4" style="ellipse;whiteSpace=wrap;html=1;rounded=1;glass=0;strokeWidth=1;shadow=0;" vertex="1" parent="WIyWlLk6GJQsqaUBKTNV-1">
          <mxGeometry x="290" y="570" width="80" height="80" as="geometry" />
        </mxCell>
        <mxCell id="qUzS2Nhz008eHLQB9md0-52" value="" style="edgeStyle=orthogonalEdgeStyle;rounded=0;orthogonalLoop=1;jettySize=auto;html=1;" edge="1" parent="WIyWlLk6GJQsqaUBKTNV-1" source="qUzS2Nhz008eHLQB9md0-47" target="qUzS2Nhz008eHLQB9md0-51">
          <mxGeometry relative="1" as="geometry" />
        </mxCell>
        <mxCell id="qUzS2Nhz008eHLQB9md0-47" value="Created" style="rhombus;whiteSpace=wrap;html=1;rounded=1;glass=0;strokeWidth=1;shadow=0;" vertex="1" parent="WIyWlLk6GJQsqaUBKTNV-1">
          <mxGeometry x="340" y="800" width="80" height="80" as="geometry" />
        </mxCell>
        <mxCell id="qUzS2Nhz008eHLQB9md0-51" value="Teleport Player to Server" style="whiteSpace=wrap;html=1;rounded=1;glass=0;strokeWidth=1;shadow=0;" vertex="1" parent="WIyWlLk6GJQsqaUBKTNV-1">
          <mxGeometry x="480" y="810" width="120" height="60" as="geometry" />
        </mxCell>
        <mxCell id="qUzS2Nhz008eHLQB9md0-55" style="edgeStyle=orthogonalEdgeStyle;rounded=0;orthogonalLoop=1;jettySize=auto;html=1;entryX=0.5;entryY=0;entryDx=0;entryDy=0;" edge="1" parent="WIyWlLk6GJQsqaUBKTNV-1" source="qUzS2Nhz008eHLQB9md0-53" target="qUzS2Nhz008eHLQB9md0-51">
          <mxGeometry relative="1" as="geometry" />
        </mxCell>
        <mxCell id="qUzS2Nhz008eHLQB9md0-53" value="Join By Code" style="rhombus;whiteSpace=wrap;html=1;rounded=1;glass=0;strokeWidth=1;shadow=0;" vertex="1" parent="WIyWlLk6GJQsqaUBKTNV-1">
          <mxGeometry x="320" y="290" width="80" height="80" as="geometry" />
        </mxCell>
        <mxCell id="qUzS2Nhz008eHLQB9md0-58" style="edgeStyle=orthogonalEdgeStyle;rounded=0;orthogonalLoop=1;jettySize=auto;html=1;" edge="1" parent="WIyWlLk6GJQsqaUBKTNV-1" source="qUzS2Nhz008eHLQB9md0-56">
          <mxGeometry relative="1" as="geometry">
            <mxPoint x="540" y="330" as="targetPoint" />
          </mxGeometry>
        </mxCell>
        <mxCell id="qUzS2Nhz008eHLQB9md0-56" value="Join off of board" style="rhombus;whiteSpace=wrap;html=1;rounded=1;glass=0;strokeWidth=1;shadow=0;" vertex="1" parent="WIyWlLk6GJQsqaUBKTNV-1">
          <mxGeometry x="500" y="180" width="80" height="80" as="geometry" />
        </mxCell>
      </root>
    </mxGraphModel>
  </diagram>
</mxfile>
